<svg version="1.1" viewBox="0.0 0.0 703.0892388451443 428.0839895013123" fill="none" stroke="none" stroke-linecap="square" stroke-miterlimit="10" xmlns:xlink="http://www.w3.org/1999/xlink" xmlns="http://www.w3.org/2000/svg"><clipPath id="p.0"><path d="m0 0l703.08923 0l0 428.08398l-703.08923 0l0 -428.08398z" clip-rule="nonzero"/></clipPath><g clip-path="url(#p.0)"><path fill="#000000" fill-opacity="0.0" d="m0 0l703.08923 0l0 428.08398l-703.08923 0z" fill-rule="evenodd"/><path fill="#c27ba0" d="m349.74802 54.26509l56.094513 0l0 57.85827l-56.094513 0z" fill-rule="evenodd"/><path fill="#ffffff" d="m384.011 90.11423l-3.21875 0l-3.09375 -5.03125l-3.09375 5.03125l-3.03125 0l4.421875 -6.875l-4.140625 -6.4375l3.109375 0l2.875 4.78125l2.8125 -4.78125l3.046875 0l-4.1875 6.59375l4.5 6.71875z" fill-rule="nonzero"/><path fill="#434343" d="m196.67061 54.26509l107.68504 0l0 57.85827l-107.68504 0z" fill-rule="evenodd"/><path fill="#ffffff" d="m228.99406 90.11423l-3.203125 -10.453125l-0.078125 0q0.171875 3.1875 0.171875 4.265625l0 6.1875l-2.53125 0l0 -13.3125l3.84375 0l3.15625 10.171875l0.0625 0l3.328125 -10.171875l3.859375 0l0 13.3125l-2.640625 0l0 -6.296875q0 -0.453125 0.015625 -1.03125q0.015625 -0.59375 0.125 -3.109375l-0.078125 0l-3.4375 10.4375l-2.59375 0zm13.949814 -5.109375q0 1.515625 0.5 2.296875q0.5 0.765625 1.609375 0.765625q1.109375 0 1.59375 -0.765625q0.5 -0.78125 0.5 -2.296875q0 -1.515625 -0.5 -2.265625q-0.484375 -0.765625 -1.609375 -0.765625q-1.109375 0 -1.609375 0.765625q-0.484375 0.75 -0.484375 2.265625zm7.046875 0q0 2.484375 -1.3125 3.890625q-1.3125 1.40625 -3.65625 1.40625q-1.46875 0 -2.59375 -0.640625q-1.109375 -0.65625 -1.71875 -1.84375q-0.59375 -1.203125 -0.59375 -2.8125q0 -2.5 1.296875 -3.875q1.296875 -1.390625 3.65625 -1.390625q1.46875 0 2.59375 0.640625q1.125 0.640625 1.71875 1.828125q0.609375 1.1875 0.609375 2.796875zm5.5195923 5.296875q-1.796875 0 -2.828125 -1.390625q-1.015625 -1.40625 -1.015625 -3.875q0 -2.5 1.03125 -3.890625q1.046875 -1.40625 2.875 -1.40625q1.921875 0 2.9375 1.5l0.09375 0q-0.21875 -1.140625 -0.21875 -2.03125l0 -3.265625l2.796875 0l0 14.171875l-2.140625 0l-0.53125 -1.328125l-0.125 0q-0.9375 1.515625 -2.875 1.515625zm0.96875 -2.21875q1.0625 0 1.5625 -0.609375q0.5 -0.625 0.546875 -2.109375l0 -0.3125q0 -1.640625 -0.515625 -2.34375q-0.5 -0.703125 -1.640625 -0.703125q-0.921875 0 -1.4375 0.78125q-0.515625 0.78125 -0.515625 2.296875q0 1.5 0.515625 2.25q0.515625 0.75 1.484375 0.75zm11.821533 -6.375q-0.875 0 -1.375 0.5625q-0.5 0.5625 -0.578125 1.59375l3.890625 0q-0.015625 -1.03125 -0.53125 -1.59375q-0.515625 -0.5625 -1.40625 -0.5625zm0.390625 8.59375q-2.453125 0 -3.84375 -1.359375q-1.375 -1.359375 -1.375 -3.84375q0 -2.5625 1.265625 -3.953125q1.28125 -1.40625 3.546875 -1.40625q2.15625 0 3.359375 1.234375q1.203125 1.21875 1.203125 3.390625l0 1.34375l-6.5625 0q0.046875 1.1875 0.703125 1.859375q0.65625 0.65625 1.828125 0.65625q0.921875 0 1.734375 -0.1875q0.828125 -0.1875 1.71875 -0.609375l0 2.15625q-0.71875 0.359375 -1.546875 0.53125q-0.828125 0.1875 -2.03125 0.1875zm9.194366 -0.1875l-2.78125 0l0 -14.171875l2.78125 0l0 14.171875z" fill-rule="nonzero"/><path fill="#000000" fill-opacity="0.0" d="m120.149605 149.51443l107.685036 0l0 42.708664l-107.685036 0z" fill-rule="evenodd"/><path fill="#000000" d="m133.60274 176.43443l-2.78125 0l0 -13.3125l7.640625 0l0 2.3125l-4.859375 0l0 3.4375l4.515625 0l0 2.296875l-4.515625 0l0 5.265625zm7.1296997 -12.8125q0 -1.359375 1.5 -1.359375q1.515625 0 1.515625 1.359375q0 0.640625 -0.375 1.0q-0.375 0.359375 -1.140625 0.359375q-1.5 0 -1.5 -1.359375zm2.890625 12.8125l-2.78125 0l0 -10.1875l2.78125 0l0 10.1875zm7.2090607 -2.03125q0.734375 0 1.75 -0.3125l0 2.0625q-1.046875 0.46875 -2.546875 0.46875q-1.671875 0 -2.4375 -0.84375q-0.75 -0.84375 -0.75 -2.53125l0 -4.90625l-1.34375 0l0 -1.1875l1.53125 -0.921875l0.8125 -2.15625l1.765625 0l0 2.171875l2.859375 0l0 2.09375l-2.859375 0l0 4.90625q0 0.59375 0.328125 0.875q0.34375 0.28125 0.890625 0.28125zm17.77272 2.03125l-2.78125 0l0 -5.953125q0 -1.09375 -0.375 -1.640625q-0.359375 -0.5625 -1.15625 -0.5625q-1.0625 0 -1.546875 0.78125q-0.484375 0.78125 -0.484375 2.578125l0 4.796875l-2.78125 0l0 -10.1875l2.125 0l0.375 1.3125l0.15625 0q0.40625 -0.703125 1.171875 -1.09375q0.78125 -0.40625 1.78125 -0.40625q2.296875 0 3.109375 1.5l0.234375 0q0.421875 -0.71875 1.21875 -1.109375q0.796875 -0.390625 1.796875 -0.390625q1.734375 0 2.609375 0.890625q0.890625 0.890625 0.890625 2.84375l0 6.640625l-2.78125 0l0 -5.953125q0 -1.09375 -0.375 -1.640625q-0.359375 -0.5625 -1.15625 -0.5625q-1.015625 0 -1.53125 0.734375q-0.5 0.71875 -0.5 2.3125l0 5.109375zm11.412949 -5.109375q0 1.515625 0.5 2.296875q0.5 0.765625 1.609375 0.765625q1.109375 0 1.59375 -0.765625q0.5 -0.78125 0.5 -2.296875q0 -1.515625 -0.5 -2.265625q-0.484375 -0.765625 -1.609375 -0.765625q-1.109375 0 -1.609375 0.765625q-0.484375 0.75 -0.484375 2.265625zm7.046875 0q0 2.484375 -1.3125 3.890625q-1.3125 1.40625 -3.65625 1.40625q-1.46875 0 -2.59375 -0.640625q-1.109375 -0.65625 -1.71875 -1.84375q-0.59375 -1.203125 -0.59375 -2.8125q0 -2.5 1.296875 -3.875q1.296875 -1.390625 3.65625 -1.390625q1.46875 0 2.59375 0.640625q1.125 0.640625 1.71875 1.828125q0.609375 1.1875 0.609375 2.796875zm5.5195923 5.296875q-1.796875 0 -2.828125 -1.390625q-1.015625 -1.40625 -1.015625 -3.875q0 -2.5 1.03125 -3.890625q1.046875 -1.40625 2.875 -1.40625q1.921875 0 2.9375 1.5l0.09375 0q-0.21875 -1.140625 -0.21875 -2.03125l0 -3.265625l2.796875 0l0 14.171875l-2.140625 0l-0.53125 -1.328125l-0.125 0q-0.9375 1.515625 -2.875 1.515625zm0.96875 -2.21875q1.0625 0 1.5625 -0.609375q0.5 -0.625 0.546875 -2.109375l0 -0.3125q0 -1.640625 -0.515625 -2.34375q-0.5 -0.703125 -1.640625 -0.703125q-0.921875 0 -1.4375 0.78125q-0.515625 0.78125 -0.515625 2.296875q0 1.5 0.515625 2.25q0.515625 0.75 1.484375 0.75zm11.821533 -6.375q-0.875 0 -1.375 0.5625q-0.5 0.5625 -0.578125 1.59375l3.890625 0q-0.015625 -1.03125 -0.53125 -1.59375q-0.515625 -0.5625 -1.40625 -0.5625zm0.390625 8.59375q-2.453125 0 -3.84375 -1.359375q-1.375 -1.359375 -1.375 -3.84375q0 -2.5625 1.265625 -3.953125q1.28125 -1.40625 3.546875 -1.40625q2.15625 0 3.359375 1.234375q1.203125 1.21875 1.203125 3.390625l0 1.34375l-6.5625 0q0.046875 1.1875 0.703125 1.859375q0.65625 0.65625 1.828125 0.65625q0.921875 0 1.734375 -0.1875q0.828125 -0.1875 1.71875 -0.609375l0 2.15625q-0.71875 0.359375 -1.546875 0.53125q-0.828125 0.1875 -2.03125 0.1875zm9.194366 -0.1875l-2.78125 0l0 -14.171875l2.78125 0l0 14.171875z" fill-rule="nonzero"/><path fill="#000000" fill-opacity="0.0" d="m250.51312 112.12336c0 29.370079 -11.338577 58.74015 -22.67717 58.74015" fill-rule="evenodd"/><path stroke="#666666" stroke-width="2.0" stroke-linejoin="round" stroke-linecap="butt" d="m250.51312 112.12336c0 14.685036 -2.8346405 29.370079 -7.086609 40.383858c-1.0630035 2.7534485 -2.214569 5.2774353 -3.4325867 7.514618c-0.6090088 1.1185913 -1.2346191 2.1654663 -1.8740692 3.1334686c-0.15986633 0.2420044 -0.32060242 0.4790802 -0.48214722 0.71110535l-0.026260376 0.037231445" fill-rule="evenodd"/><path fill="#666666" stroke="#666666" stroke-width="2.0" stroke-linecap="butt" d="m235.69547 161.21255l-5.477707 7.955185l9.309662 -2.5730286z" fill-rule="evenodd"/><path fill="#000000" fill-opacity="0.0" d="m83.59843 238.49081l182.4567 0l0 42.70865l-182.4567 0z" fill-rule="evenodd"/><path fill="#000000" d="m99.91093 265.4108l-3.203125 -10.45311l-0.078125 0q0.171875 3.1874847 0.171875 4.2656097l0 6.1875l-2.53125 0l0 -13.312485l3.84375 0l3.15625 10.17186l0.0625 0l3.328125 -10.17186l3.859375 0l0 13.312485l-2.640625 0l0 -6.296875q0 -0.453125 0.015625 -1.03125q0.015625 -0.59375 0.125 -3.1093597l-0.078125 0l-3.4375 10.437485l-2.59375 0zm18.199814 0l-0.53125 -1.390625l-0.078125 0q-0.703125 0.890625 -1.453125 1.234375q-0.734375 0.34375 -1.921875 0.34375q-1.46875 0 -2.3125 -0.84375q-0.84375 -0.84375 -0.84375 -2.390625q0 -1.625 1.125 -2.390625q1.140625 -0.765625 3.4375 -0.84375l1.765625 -0.0625l0 -0.4375q0 -1.546875 -1.59375 -1.546875q-1.21875 0 -2.859375 0.734375l-0.921875 -1.8749847q1.75 -0.921875 3.890625 -0.921875q2.046875 0 3.140625 0.890625q1.09375 0.89060974 1.09375 2.7187347l0 6.78125l-1.9375 0zm-0.8125 -4.71875l-1.078125 0.03125q-1.21875 0.046875 -1.8125 0.453125q-0.578125 0.390625 -0.578125 1.203125q0 1.1875 1.34375 1.1875q0.96875 0 1.546875 -0.546875q0.578125 -0.5625 0.578125 -1.484375l0 -0.84375zm8.284073 -0.8125l1.21875 -1.5625l2.8437424 -3.0937347l3.140625 0l-4.046875 4.4218597l4.28125 5.765625l-3.203125 0l-2.9374924 -4.125l-1.1875 0.953125l0 3.171875l-2.78125 0l0 -14.17186l2.78125 0l0 6.3124847l-0.140625 2.328125l0.03125 0zm13.115929 -2.875q-0.875 0 -1.375 0.5625q-0.5 0.5625 -0.578125 1.59375l3.890625 0q-0.015625 -1.03125 -0.53125 -1.59375q-0.515625 -0.5625 -1.40625 -0.5625zm0.390625 8.59375q-2.453125 0 -3.84375 -1.359375q-1.375 -1.359375 -1.375 -3.84375q0 -2.5625 1.265625 -3.953125q1.28125 -1.4062347 3.546875 -1.4062347q2.15625 0 3.359375 1.2343597q1.203125 1.21875 1.203125 3.390625l0 1.34375l-6.5625 0q0.046875 1.1875 0.703125 1.859375q0.65625 0.65625 1.828125 0.65625q0.921875 0 1.734375 -0.1875q0.828125 -0.1875 1.71875 -0.609375l0 2.15625q-0.71875 0.359375 -1.546875 0.53125q-0.828125 0.1875 -2.03125 0.1875zm16.853119 0q-1.796875 0 -2.8125 -1.3125l-0.140625 0q0.140625 1.28125 0.140625 1.484375l0 4.125l-2.78125 0l0 -14.67186l2.265625 0l0.390625 1.3281097l0.125 0q0.96875 -1.5156097 2.890625 -1.5156097q1.796875 0 2.8125 1.3906097q1.03125 1.390625 1.03125 3.875q0 1.625 -0.484375 2.828125q-0.46875 1.203125 -1.359375 1.84375q-0.875 0.625 -2.078125 0.625zm-0.8125 -8.34375q-1.03125 0 -1.515625 0.640625q-0.46875 0.625 -0.484375 2.09375l0 0.296875q0 1.640625 0.484375 2.359375q0.484375 0.703125 1.546875 0.703125q1.875 0 1.875 -3.078125q0 -1.515625 -0.46875 -2.265625q-0.453125 -0.75 -1.4375 -0.75zm12.712158 -2.2187347q0.5625 0 0.9375 0.078125l-0.203125 2.6093597q-0.34375 -0.09375 -0.828125 -0.09375q-1.328125 0 -2.078125 0.6875q-0.734375 0.6875 -0.734375 1.90625l0 5.1875l-2.78125 0l0 -10.187485l2.109375 0l0.40625 1.7187347l0.140625 0q0.46875 -0.859375 1.265625 -1.3749847q0.8125 -0.53125 1.765625 -0.53125zm7.0030823 1.9687347q-0.875 0 -1.375 0.5625q-0.5 0.5625 -0.578125 1.59375l3.890625 0q-0.015625 -1.03125 -0.53125 -1.59375q-0.515625 -0.5625 -1.40625 -0.5625zm0.390625 8.59375q-2.453125 0 -3.84375 -1.359375q-1.375 -1.359375 -1.375 -3.84375q0 -2.5625 1.265625 -3.953125q1.28125 -1.4062347 3.546875 -1.4062347q2.15625 0 3.359375 1.2343597q1.203125 1.21875 1.203125 3.390625l0 1.34375l-6.5625 0q0.046875 1.1875 0.703125 1.859375q0.65625 0.65625 1.828125 0.65625q0.921875 0 1.734375 -0.1875q0.828125 -0.1875 1.71875 -0.609375l0 2.15625q-0.71875 0.359375 -1.546875 0.53125q-0.828125 0.1875 -2.03125 0.1875zm9.647491 0q-1.796875 0 -2.828125 -1.390625q-1.015625 -1.40625 -1.015625 -3.875q0 -2.5 1.03125 -3.890625q1.046875 -1.4062347 2.875 -1.4062347q1.921875 0 2.9375 1.4999847l0.09375 0q-0.21875 -1.1406097 -0.21875 -2.0312347l0 -3.265625l2.796875 0l0 14.17186l-2.140625 0l-0.53125 -1.328125l-0.125 0q-0.9375 1.515625 -2.875 1.515625zm0.96875 -2.21875q1.0625 0 1.5625 -0.609375q0.5 -0.625 0.546875 -2.109375l0 -0.3125q0 -1.640625 -0.515625 -2.34375q-0.5 -0.703125 -1.640625 -0.703125q-0.921875 0 -1.4375 0.78125q-0.515625 0.78125 -0.515625 2.296875q0 1.5 0.515625 2.25q0.515625 0.75 1.484375 0.75zm7.493408 -10.781235q0 -1.359375 1.5 -1.359375q1.515625 0 1.515625 1.359375q0 0.640625 -0.375 1.0q-0.375 0.359375 -1.140625 0.359375q-1.5 0 -1.5 -1.359375zm2.890625 12.812485l-2.78125 0l0 -10.187485l2.78125 0l0 10.187485zm7.0528107 0.1875q-4.75 0 -4.75 -5.21875q0 -2.609375 1.28125 -3.96875q1.296875 -1.3749847 3.71875 -1.3749847q1.765625 0 3.171875 0.6875l-0.828125 2.1562347q-0.65625 -0.265625 -1.21875 -0.4375q-0.5625 -0.171875 -1.125 -0.171875q-2.171875 0 -2.171875 3.078125q0 3.0 2.171875 3.0q0.796875 0 1.46875 -0.21875q0.6875 -0.21875 1.375 -0.671875l0 2.375q-0.671875 0.4375 -1.359375 0.59375q-0.6875 0.171875 -1.734375 0.171875zm9.74855 -2.21875q0.734375 0 1.75 -0.3125l0 2.0625q-1.046875 0.46875 -2.546875 0.46875q-1.671875 0 -2.4375 -0.84375q-0.75 -0.84375 -0.75 -2.53125l0 -4.90625l-1.34375 0l0 -1.1875l1.53125 -0.92185974l0.8125 -2.15625l1.765625 0l0 2.171875l2.859375 0l0 2.0937347l-2.859375 0l0 4.90625q0 0.59375 0.328125 0.875q0.34375 0.28125 0.890625 0.28125zm3.692093 -10.781235q0 -1.359375 1.5 -1.359375q1.515625 0 1.515625 1.359375q0 0.640625 -0.375 1.0q-0.375 0.359375 -1.140625 0.359375q-1.5 0 -1.5 -1.359375zm2.890625 12.812485l-2.78125 0l0 -10.187485l2.78125 0l0 10.187485zm5.1309357 -5.109375q0 1.515625 0.5 2.296875q0.5 0.765625 1.609375 0.765625q1.109375 0 1.59375 -0.765625q0.5 -0.78125 0.5 -2.296875q0 -1.515625 -0.5 -2.265625q-0.484375 -0.765625 -1.609375 -0.765625q-1.109375 0 -1.609375 0.765625q-0.484375 0.75 -0.484375 2.265625zm7.046875 0q0 2.484375 -1.3125 3.890625q-1.3125 1.40625 -3.65625 1.40625q-1.46875 0 -2.59375 -0.640625q-1.109375 -0.65625 -1.71875 -1.84375q-0.59375 -1.203125 -0.59375 -2.8125q0 -2.5 1.296875 -3.875q1.296875 -1.3906097 3.65625 -1.3906097q1.46875 0 2.59375 0.640625q1.125 0.64060974 1.71875 1.8281097q0.609375 1.1875 0.609375 2.796875zm11.691467 5.109375l-2.78125 0l0 -5.953125q0 -1.09375 -0.390625 -1.640625q-0.390625 -0.5625 -1.25 -0.5625q-1.15625 0 -1.6875 0.78125q-0.515625 0.78125 -0.515625 2.578125l0 4.796875l-2.78125 0l0 -10.187485l2.125 0l0.375 1.3124847l0.15625 0q0.46875 -0.74998474 1.28125 -1.1249847q0.8125 -0.375 1.84375 -0.375q1.78125 0 2.703125 0.96873474q0.921875 0.953125 0.921875 2.765625l0 6.640625zm9.964508 -3.03125q0 1.578125 -1.09375 2.40625q-1.078125 0.8125 -3.25 0.8125q-1.109375 0 -1.890625 -0.15625q-0.78125 -0.15625 -1.46875 -0.4375l0 -2.296875q0.765625 0.359375 1.734375 0.609375q0.984375 0.25 1.71875 0.25q1.515625 0 1.515625 -0.875q0 -0.328125 -0.203125 -0.53125q-0.203125 -0.21875 -0.703125 -0.46875q-0.484375 -0.265625 -1.3125 -0.609375q-1.171875 -0.484375 -1.71875 -0.90625q-0.546875 -0.421875 -0.796875 -0.953125q-0.25 -0.546875 -0.25 -1.34375q0 -1.359375 1.046875 -2.0937347q1.046875 -0.75 2.984375 -0.75q1.84375 0 3.578125 0.796875l-0.84375 2.0156097q-0.765625 -0.328125 -1.4375 -0.53125q-0.65625 -0.21875 -1.34375 -0.21875q-1.234375 0 -1.234375 0.65625q0 0.375 0.390625 0.65625q0.40625 0.265625 1.75 0.8125q1.1875 0.46875 1.734375 0.890625q0.5625 0.421875 0.828125 0.96875q0.265625 0.546875 0.265625 1.296875z" fill-rule="nonzero"/><path fill="#000000" fill-opacity="0.0" d="m173.99213 192.2231c0 11.566925 0.21260071 17.350388 0.42520142 23.13385c0.21260071 5.783478 0.42518616 11.56694 0.42518616 23.133865" fill-rule="evenodd"/><path stroke="#666666" stroke-width="2.0" stroke-linejoin="round" stroke-linecap="butt" d="m173.99213 192.2231c0 11.566925 0.21260071 17.350388 0.42520142 23.13385c0.106292725 2.891739 0.21260071 5.783478 0.29231262 9.398132c0.009963989 0.45184326 0.01953125 0.91496277 0.02861023 1.3907928l0.006072998 0.34535217" fill-rule="evenodd"/><path fill="#666666" stroke="#666666" stroke-width="2.0" stroke-linecap="butt" d="m171.44096 226.51825l3.3776245 9.048859l3.2290802 -9.102921z" fill-rule="evenodd"/><path fill="#c27ba0" d="m416.4777 54.26509l56.094482 0l0 57.85827l-56.094482 0z" fill-rule="evenodd"/><path fill="#ffffff" d="m444.5321 82.2861l2.765625 -5.484375l3.046875 0l-4.421875 8.125l0 5.1875l-2.796875 0l0 -5.09375l-4.421875 -8.21875l3.0625 0l2.765625 5.484375z" fill-rule="nonzero"/><path fill="#000000" fill-opacity="0.0" d="m340.86615 44.92651l141.51181 0l0 76.53543l-141.51181 0z" fill-rule="evenodd"/><path stroke="#c27ba0" stroke-width="3.0" stroke-linejoin="round" stroke-linecap="butt" d="m340.86615 44.92651l141.51181 0l0 76.53543l-141.51181 0z" fill-rule="evenodd"/><path fill="#000000" fill-opacity="0.0" d="m345.31497 11.572179l129.95276 0l0 33.354332l-129.95276 0z" fill-rule="evenodd"/><path fill="#000000" d="m377.31088 24.510303l2.453125 0l-3.890625 11.421875l-2.640625 0l-3.875 -11.421875l2.453125 0l2.140625 6.796875q0.1875 0.59375 0.375 1.40625q0.1875 0.796875 0.234375 1.109375q0.09375 -0.71875 0.59375 -2.515625l2.15625 -6.796875zm9.2421875 11.421875l-0.453125 -1.1875l-0.0625 0q-0.609375 0.75 -1.25 1.046875q-0.625 0.296875 -1.65625 0.296875q-1.25 0 -1.984375 -0.71875q-0.71875 -0.71875 -0.71875 -2.046875q0 -1.390625 0.96875 -2.046875q0.984375 -0.671875 2.9375 -0.734375l1.515625 -0.046875l0 -0.390625q0 -1.328125 -1.359375 -1.328125q-1.046875 0 -2.453125 0.640625l-0.796875 -1.609375q1.515625 -0.796875 3.34375 -0.796875q1.765625 0 2.703125 0.765625q0.9375 0.765625 0.9375 2.328125l0 5.828125l-1.671875 0zm-0.703125 -4.046875l-0.921875 0.03125q-1.03125 0.03125 -1.546875 0.375q-0.5 0.34375 -0.5 1.046875q0 1.0 1.15625 1.0q0.828125 0 1.3125 -0.46875q0.5 -0.484375 0.5 -1.265625l0 -0.71875zm7.2109375 4.046875l-2.390625 0l0 -12.15625l2.390625 0l0 12.15625zm2.3984375 -11.0q0 -1.15625 1.296875 -1.15625q1.296875 0 1.296875 1.15625q0 0.5625 -0.328125 0.875q-0.328125 0.296875 -0.96875 0.296875q-1.296875 0 -1.296875 -1.171875zm2.484375 11.0l-2.390625 0l0 -8.734375l2.390625 0l0 8.734375zm5.2578125 0.15625q-1.53125 0 -2.421875 -1.1875q-0.875 -1.203125 -0.875 -3.328125q0 -2.140625 0.890625 -3.34375q0.90625 -1.203125 2.46875 -1.203125q1.65625 0 2.515625 1.28125l0.078125 0q-0.171875 -0.96875 -0.171875 -1.734375l0 -2.796875l2.390625 0l0 12.15625l-1.828125 0l-0.46875 -1.140625l-0.09375 0q-0.8125 1.296875 -2.484375 1.296875zm0.84375 -1.90625q0.90625 0 1.328125 -0.53125q0.4375 -0.53125 0.46875 -1.796875l0 -0.265625q0 -1.40625 -0.4375 -2.015625q-0.421875 -0.609375 -1.40625 -0.609375q-0.796875 0 -1.234375 0.6875q-0.4375 0.671875 -0.4375 1.953125q0 1.296875 0.4375 1.9375q0.453125 0.640625 1.28125 0.640625zm12.0625 1.75l-0.453125 -1.1875l-0.0625 0q-0.609375 0.75 -1.25 1.046875q-0.625 0.296875 -1.65625 0.296875q-1.25 0 -1.984375 -0.71875q-0.71875 -0.71875 -0.71875 -2.046875q0 -1.390625 0.96875 -2.046875q0.984375 -0.671875 2.9375 -0.734375l1.515625 -0.046875l0 -0.390625q0 -1.328125 -1.359375 -1.328125q-1.046875 0 -2.453125 0.640625l-0.796875 -1.609375q1.515625 -0.796875 3.34375 -0.796875q1.765625 0 2.703125 0.765625q0.9375 0.765625 0.9375 2.328125l0 5.828125l-1.671875 0zm-0.703125 -4.046875l-0.921875 0.03125q-1.03125 0.03125 -1.546875 0.375q-0.5 0.34375 -0.5 1.046875q0 1.0 1.15625 1.0q0.828125 0 1.3125 -0.46875q0.5 -0.484375 0.5 -1.265625l0 -0.71875zm8.5078125 2.296875q0.625 0 1.5 -0.265625l0 1.765625q-0.890625 0.40625 -2.1875 0.40625q-1.4375 0 -2.09375 -0.71875q-0.640625 -0.734375 -0.640625 -2.171875l0 -4.21875l-1.140625 0l0 -1.0l1.3125 -0.796875l0.6875 -1.84375l1.515625 0l0 1.859375l2.453125 0l0 1.78125l-2.453125 0l0 4.21875q0 0.5 0.28125 0.75q0.296875 0.234375 0.765625 0.234375zm3.1640625 -9.25q0 -1.15625 1.296875 -1.15625q1.296875 0 1.296875 1.15625q0 0.5625 -0.328125 0.875q-0.328125 0.296875 -0.96875 0.296875q-1.296875 0 -1.296875 -1.171875zm2.484375 11.0l-2.390625 0l0 -8.734375l2.390625 0l0 8.734375zm4.3984375 -4.390625q0 1.296875 0.421875 1.96875q0.421875 0.65625 1.390625 0.65625q0.953125 0 1.359375 -0.65625q0.421875 -0.65625 0.421875 -1.96875q0 -1.296875 -0.421875 -1.9375q-0.421875 -0.65625 -1.375 -0.65625q-0.953125 0 -1.375 0.65625q-0.421875 0.640625 -0.421875 1.9375zm6.03125 0q0 2.140625 -1.125 3.34375q-1.125 1.203125 -3.125 1.203125q-1.265625 0 -2.234375 -0.546875q-0.953125 -0.5625 -1.46875 -1.59375q-0.515625 -1.03125 -0.515625 -2.40625q0 -2.140625 1.109375 -3.328125q1.125 -1.1875 3.15625 -1.1875q1.25 0 2.203125 0.546875q0.96875 0.546875 1.484375 1.578125q0.515625 1.015625 0.515625 2.390625zm10.03125 4.390625l-2.375 0l0 -5.109375q0 -0.9375 -0.34375 -1.40625q-0.328125 -0.484375 -1.0625 -0.484375q-1.0 0 -1.453125 0.671875q-0.4375 0.671875 -0.4375 2.21875l0 4.109375l-2.390625 0l0 -8.734375l1.828125 0l0.3125 1.109375l0.140625 0q0.390625 -0.625 1.09375 -0.953125q0.703125 -0.328125 1.59375 -0.328125q1.515625 0 2.296875 0.828125q0.796875 0.828125 0.796875 2.375l0 5.703125z" fill-rule="nonzero"/><path fill="#6d9eeb" d="m28.456694 54.26509l56.094482 0l0 57.85827l-56.094482 0z" fill-rule="evenodd"/><path fill="#ffffff" d="m62.71965 90.11423l-3.21875 0l-3.09375 -5.03125l-3.09375 5.03125l-3.03125 0l4.421875 -6.875l-4.140625 -6.4375l3.109375 0l2.875 4.78125l2.8125 -4.78125l3.046875 0l-4.1875 6.59375l4.5 6.71875z" fill-rule="nonzero"/><path fill="#6d9eeb" d="m94.26247 54.26509l56.094482 0l0 57.85827l-56.094482 0z" fill-rule="evenodd"/><path fill="#ffffff" d="m122.31687 82.2861l2.765625 -5.484375l3.0468674 0l-4.4218674 8.125l0 5.1875l-2.796875 0l0 -5.09375l-4.421875 -8.21875l3.0625 0l2.765625 5.484375z" fill-rule="nonzero"/><path fill="#000000" fill-opacity="0.0" d="m18.650919 44.92651l141.51181 0l0 76.53543l-141.51181 0z" fill-rule="evenodd"/><path stroke="#6d9eeb" stroke-width="3.0" stroke-linejoin="round" stroke-linecap="butt" d="m18.650919 44.92651l141.51181 0l0 76.53543l-141.51181 0z" fill-rule="evenodd"/><path fill="#000000" fill-opacity="0.0" d="m23.099737 11.572179l129.95276 0l0 33.354332l-129.95276 0z" fill-rule="evenodd"/><path fill="#000000" d="m60.904243 35.93218l-2.421875 0l0 -9.40625l-3.09375 0l0 -2.015625l8.625 0l0 2.015625l-3.109375 0l0 9.40625zm9.546875 -8.90625q0.484375 0 0.8125 0.078125l-0.1875 2.234375q-0.28125 -0.078125 -0.703125 -0.078125q-1.140625 0 -1.78125 0.59375q-0.625 0.578125 -0.625 1.625l0 4.453125l-2.390625 0l0 -8.734375l1.8125 0l0.34375 1.46875l0.125 0q0.40625 -0.734375 1.09375 -1.1875q0.6875 -0.453125 1.5 -0.453125zm7.9375 8.90625l-0.453125 -1.1875l-0.0625 0q-0.609375 0.75 -1.25 1.046875q-0.625 0.296875 -1.65625 0.296875q-1.25 0 -1.984375 -0.71875q-0.71875 -0.71875 -0.71875 -2.046875q0 -1.390625 0.96875 -2.046875q0.984375 -0.671875 2.9375 -0.734375l1.515625 -0.046875l0 -0.390625q0 -1.328125 -1.359375 -1.328125q-1.046875 0 -2.453125 0.640625l-0.796875 -1.609375q1.515625 -0.796875 3.34375 -0.796875q1.765625 0 2.703125 0.765625q0.9375 0.765625 0.9375 2.328125l0 5.828125l-1.671875 0zm-0.703125 -4.046875l-0.921875 0.03125q-1.03125 0.03125 -1.546875 0.375q-0.5 0.34375 -0.5 1.046875q0 1.0 1.15625 1.0q0.828125 0 1.3125 -0.46875q0.5 -0.484375 0.5 -1.265625l0 -0.71875zm4.7265625 -6.953125q0 -1.15625 1.296875 -1.15625q1.296875 0 1.296875 1.15625q0 0.5625 -0.328125 0.875q-0.328125 0.296875 -0.96875 0.296875q-1.296875 0 -1.296875 -1.171875zm2.484375 11.0l-2.390625 0l0 -8.734375l2.390625 0l0 8.734375zm10.5546875 0l-2.375 0l0 -5.109375q0 -0.9375 -0.34375 -1.40625q-0.328125 -0.484375 -1.0625 -0.484375q-1.0 0 -1.453125 0.671875q-0.4375 0.671875 -0.4375 2.21875l0 4.109375l-2.390625 0l0 -8.734375l1.828125 0l0.3125 1.109375l0.140625 0q0.390625 -0.625 1.09375 -0.953125q0.703125 -0.328125 1.59375 -0.328125q1.515625 0 2.296875 0.828125q0.796875 0.828125 0.796875 2.375l0 5.703125zm2.359375 -11.0q0 -1.15625 1.296875 -1.15625q1.296875 0 1.296875 1.15625q0 0.5625 -0.328125 0.875q-0.328125 0.296875 -0.96875 0.296875q-1.296875 0 -1.296875 -1.171875zm2.484375 11.0l-2.390625 0l0 -8.734375l2.390625 0l0 8.734375zm10.5546875 0l-2.375 0l0 -5.109375q0 -0.9375 -0.34375 -1.40625q-0.328125 -0.484375 -1.0625 -0.484375q-1.0 0 -1.453125 0.671875q-0.4375 0.671875 -0.4375 2.21875l0 4.109375l-2.390625 0l0 -8.734375l1.828125 0l0.3125 1.109375l0.140625 0q0.390625 -0.625 1.09375 -0.953125q0.703125 -0.328125 1.59375 -0.328125q1.515625 0 2.296875 0.828125q0.796875 0.828125 0.796875 2.375l0 5.703125zm10.0625 -8.734375l0 1.203125l-1.375 0.359375q0.375 0.578125 0.375 1.3125q0 1.40625 -0.984375 2.1875q-0.96875 0.78125 -2.71875 0.78125l-0.421875 -0.015625l-0.359375 -0.046875q-0.359375 0.28125 -0.359375 0.625q0 0.515625 1.3125 0.515625l1.484375 0q1.4375 0 2.1875 0.625q0.75 0.609375 0.75 1.8125q0 1.53125 -1.28125 2.375q-1.265625 0.84375 -3.65625 0.84375q-1.828125 0 -2.796875 -0.640625q-0.96875 -0.625 -0.96875 -1.78125q0 -0.78125 0.484375 -1.328125q0.5 -0.53125 1.453125 -0.75q-0.359375 -0.15625 -0.640625 -0.515625q-0.265625 -0.359375 -0.265625 -0.75q0 -0.5 0.28125 -0.828125q0.296875 -0.34375 0.84375 -0.65625q-0.6875 -0.296875 -1.09375 -0.953125q-0.40625 -0.65625 -0.40625 -1.546875q0 -1.4375 0.921875 -2.21875q0.9375 -0.78125 2.671875 -0.78125q0.359375 0 0.859375 0.078125q0.515625 0.0625 0.65625 0.09375l3.046875 0zm-6.75 9.96875q0 0.5 0.46875 0.78125q0.484375 0.28125 1.328125 0.28125q1.28125 0 2.0 -0.359375q0.734375 -0.34375 0.734375 -0.953125q0 -0.5 -0.4375 -0.6875q-0.421875 -0.1875 -1.3125 -0.1875l-1.234375 0q-0.65625 0 -1.109375 0.3125q-0.4375 0.3125 -0.4375 0.8125zm0.875 -7.109375q0 0.703125 0.3125 1.125q0.328125 0.40625 1.0 0.40625q0.671875 0 0.984375 -0.40625q0.3125 -0.421875 0.3125 -1.125q0 -1.578125 -1.296875 -1.578125q-1.3125 0 -1.3125 1.578125z" fill-rule="nonzero"/><path fill="#000000" fill-opacity="0.0" d="m89.40682 121.461945c0 24.708664 15.370079 49.417328 30.740158 49.417328" fill-rule="evenodd"/><path stroke="#666666" stroke-width="2.0" stroke-linejoin="round" stroke-linecap="butt" d="m89.40682 121.461945c0 12.354324 3.8425217 24.708664 9.6063 33.97441c2.8818893 4.6328735 6.244095 8.493591 9.846458 11.196106l0.050071716 0.036987305" fill-rule="evenodd"/><path fill="#666666" stroke="#666666" stroke-width="2.0" stroke-linecap="butt" d="m107.75074 169.76295l9.658264 0.09059143l-7.340431 -6.277603z" fill-rule="evenodd"/><path fill="#000000" fill-opacity="0.0" d="m377.7953 112.12336c0 73.85827 -55.874023 147.71655 -111.74805 147.71655" fill-rule="evenodd"/><path stroke="#666666" stroke-width="2.0" stroke-linejoin="round" stroke-linecap="butt" d="m377.7953 112.12336c0 36.92913 -13.968506 73.85827 -34.921265 101.55512c-10.476379 13.848419 -22.698822 25.388779 -35.79431 33.467026c-6.5477295 4.0391235 -13.313721 7.212723 -20.188843 9.376526c-1.7187805 0.5409546 -3.444397 1.0187988 -5.1750793 1.4312744c-0.86538696 0.2062378 -1.7319946 0.39614868 -2.599701 0.569397c-0.21691895 0.04333496 -0.43392944 0.085632324 -0.651001 0.12686157l-0.46868896 0.086761475" fill-rule="evenodd"/><path fill="#666666" stroke="#666666" stroke-width="2.0" stroke-linecap="butt" d="m277.6926 255.44685l-8.733948 4.124161l9.341553 2.454773z" fill-rule="evenodd"/><path fill="#000000" fill-opacity="0.0" d="m377.7953 112.12336c0 73.85827 49.40155 147.71655 98.80313 147.71655" fill-rule="evenodd"/><path stroke="#666666" stroke-width="2.0" stroke-linejoin="round" stroke-linecap="butt" d="m377.7953 112.12336c0 36.92913 12.350372 73.85827 30.875977 101.55512c9.262787 13.848419 20.069397 25.388779 31.647888 33.467026c5.7892456 4.0391235 11.771484 7.212723 17.85019 9.376526c1.5196838 0.5409546 3.0453491 1.0187988 4.5756226 1.4312744c0.38253784 0.1031189 0.76538086 0.20214844 1.1484985 0.29708862c0.1914978 0.047454834 0.3831482 0.09387207 0.5747986 0.13925171l0.21221924 0.049102783" fill-rule="evenodd"/><path fill="#666666" stroke="#666666" stroke-width="2.0" stroke-linecap="butt" d="m464.2948 261.71964l9.399811 -2.2211304l-8.628387 -4.340622z" fill-rule="evenodd"/><path fill="#2ac380" d="m518.8873 54.26509l124.566956 0l0 57.85827l-124.566956 0z" fill-rule="evenodd"/><path fill="#ffffff" d="m546.789 90.11423l-7.671875 0l0 -13.3125l7.671875 0l0 2.3125l-4.84375 0l0 2.921875l4.515625 0l0 2.3125l-4.515625 0l0 3.4375l4.84375 0l0 2.328125zm4.6516724 -5.203125l-3.28125 -4.984375l3.15625 0l1.96875 3.25l2.0 -3.25l3.15625 0l-3.328125 4.984375l3.46875 5.203125l-3.15625 0l-2.140625 -3.484375l-2.140625 3.484375l-3.15625 0l3.453125 -5.203125zm14.285645 5.390625q-1.796875 0 -2.8125 -1.3125l-0.140625 0q0.140625 1.28125 0.140625 1.484375l0 4.125l-2.78125 0l0 -14.671875l2.265625 0l0.390625 1.328125l0.125 0q0.96875 -1.515625 2.890625 -1.515625q1.796875 0 2.8125 1.390625q1.03125 1.390625 1.03125 3.875q0 1.625 -0.484375 2.828125q-0.46875 1.203125 -1.359375 1.84375q-0.875 0.625 -2.078125 0.625zm-0.8125 -8.34375q-1.03125 0 -1.515625 0.640625q-0.46875 0.625 -0.484375 2.09375l0 0.296875q0 1.640625 0.484375 2.359375q0.484375 0.703125 1.546875 0.703125q1.875 0 1.875 -3.078125q0 -1.515625 -0.46875 -2.265625q-0.453125 -0.75 -1.4375 -0.75zm9.805908 8.15625l-2.78125 0l0 -14.171875l2.78125 0l0 14.171875zm9.380981 0l-0.53125 -1.390625l-0.078125 0q-0.703125 0.890625 -1.453125 1.234375q-0.734375 0.34375 -1.921875 0.34375q-1.46875 0 -2.3125 -0.84375q-0.84375 -0.84375 -0.84375 -2.390625q0 -1.625 1.125 -2.390625q1.140625 -0.765625 3.4375 -0.84375l1.765625 -0.0625l0 -0.4375q0 -1.546875 -1.59375 -1.546875q-1.21875 0 -2.859375 0.734375l-0.921875 -1.875q1.75 -0.921875 3.890625 -0.921875q2.046875 0 3.140625 0.890625q1.09375 0.890625 1.09375 2.71875l0 6.78125l-1.9375 0zm-0.8125 -4.71875l-1.078125 0.03125q-1.21875 0.046875 -1.8125 0.453125q-0.578125 0.390625 -0.578125 1.203125q0 1.1875 1.34375 1.1875q0.96875 0 1.546875 -0.546875q0.578125 -0.5625 0.578125 -1.484375l0 -0.84375zm5.5028076 -8.09375q0 -1.359375 1.5 -1.359375q1.515625 0 1.515625 1.359375q0 0.640625 -0.375 1.0q-0.375 0.359375 -1.140625 0.359375q-1.5 0 -1.5 -1.359375zm2.890625 12.8125l-2.78125 0l0 -10.1875l2.78125 0l0 10.1875zm12.31842 0l-2.78125 0l0 -5.953125q0 -1.09375 -0.390625 -1.640625q-0.390625 -0.5625 -1.25 -0.5625q-1.15625 0 -1.6875 0.78125q-0.515625 0.78125 -0.515625 2.578125l0 4.796875l-2.78125 0l0 -10.1875l2.125 0l0.375 1.3125l0.15625 0q0.46875 -0.75 1.28125 -1.125q0.8125 -0.375 1.84375 -0.375q1.78125 0 2.703125 0.96875q0.921875 0.953125 0.921875 2.765625l0 6.640625zm7.0739136 -8.40625q-0.875 0 -1.375 0.5625q-0.5 0.5625 -0.578125 1.59375l3.890625 0q-0.015625 -1.03125 -0.53125 -1.59375q-0.515625 -0.5625 -1.40625 -0.5625zm0.390625 8.59375q-2.453125 0 -3.84375 -1.359375q-1.375 -1.359375 -1.375 -3.84375q0 -2.5625 1.265625 -3.953125q1.28125 -1.40625 3.546875 -1.40625q2.15625 0 3.359375 1.234375q1.203125 1.21875 1.203125 3.390625l0 1.34375l-6.5625 0q0.046875 1.1875 0.703125 1.859375q0.65625 0.65625 1.828125 0.65625q0.921875 0 1.734375 -0.1875q0.828125 -0.1875 1.71875 -0.609375l0 2.15625q-0.71875 0.359375 -1.546875 0.53125q-0.828125 0.1875 -2.03125 0.1875zm12.100586 -10.5625q0.5625 0 0.9375 0.078125l-0.203125 2.609375q-0.34375 -0.09375 -0.828125 -0.09375q-1.328125 0 -2.078125 0.6875q-0.734375 0.6875 -0.734375 1.90625l0 5.1875l-2.78125 0l0 -10.1875l2.109375 0l0.40625 1.71875l0.140625 0q0.46875 -0.859375 1.265625 -1.375q0.8125 -0.53125 1.765625 -0.53125z" fill-rule="nonzero"/><path fill="#000000" fill-opacity="0.0" d="m476.60367 238.49081l209.13388 0l0 42.70865l-209.13388 0z" fill-rule="evenodd"/><path fill="#000000" d="m495.4318 265.4108l-0.96875 -3.171875l-4.84375 0l-0.96875 3.171875l-3.046875 0l4.703125 -13.374985l3.453125 0l4.71875 13.374985l-3.046875 0zm-1.640625 -5.53125q-1.34375 -4.3124847 -1.515625 -4.8749847q-0.15625 -0.578125 -0.234375 -0.90625q-0.296875 1.171875 -1.71875 5.7812347l3.46875 0zm15.54361 5.53125l-2.78125 0l0 -5.953125q0 -1.09375 -0.390625 -1.640625q-0.390625 -0.5625 -1.25 -0.5625q-1.15625 0 -1.6875 0.78125q-0.515625 0.78125 -0.515625 2.578125l0 4.796875l-2.78125 0l0 -10.187485l2.125 0l0.375 1.3124847l0.15625 0q0.46875 -0.74998474 1.28125 -1.1249847q0.8125 -0.375 1.84375 -0.375q1.78125 0 2.703125 0.96873474q0.921875 0.953125 0.921875 2.765625l0 6.640625zm9.323853 0l-0.53125 -1.390625l-0.078125 0q-0.703125 0.890625 -1.453125 1.234375q-0.734375 0.34375 -1.921875 0.34375q-1.46875 0 -2.3125 -0.84375q-0.8437195 -0.84375 -0.8437195 -2.390625q0 -1.625 1.1249695 -2.390625q1.140625 -0.765625 3.4375 -0.84375l1.765625 -0.0625l0 -0.4375q0 -1.546875 -1.59375 -1.546875q-1.21875 0 -2.859375 0.734375l-0.921875 -1.8749847q1.75 -0.921875 3.890625 -0.921875q2.046875 0 3.140625 0.890625q1.09375 0.89060974 1.09375 2.7187347l0 6.78125l-1.9375 0zm-0.8125 -4.71875l-1.078125 0.03125q-1.21875 0.046875 -1.8125 0.453125q-0.578125 0.390625 -0.578125 1.203125q0 1.1875 1.34375 1.1875q0.96875 0 1.546875 -0.546875q0.578125 -0.5625 0.578125 -1.484375l0 -0.84375zm8.393494 4.71875l-2.78125 0l0 -14.17186l2.78125 0l0 14.17186zm1.4590454 -10.187485l3.046875 0l1.921875 5.7343597q0.234375 0.75 0.328125 1.765625l0.0625 0q0.09375 -0.9375 0.390625 -1.765625l1.890625 -5.7343597l2.96875 0l-4.3125 11.48436q-0.578125 1.59375 -1.6875 2.390625q-1.09375 0.796875 -2.5625 0.796875q-0.71875 0 -1.40625 -0.15625l0 -2.203125q0.5 0.109375 1.09375 0.109375q0.734375 0 1.28125 -0.453125q0.5625 -0.4375 0.859375 -1.359375l0.171875 -0.5l-4.046875 -10.10936zm19.159424 10.187485l-8.046875 0l0 -1.640625l4.71875 -6.421875l-4.4375 0l0 -2.1249847l7.59375 0l0 1.8124847l-4.578125 6.25l4.75 0l0 2.125zm6.225403 -8.40625q-0.875 0 -1.375 0.5625q-0.5 0.5625 -0.578125 1.59375l3.890625 0q-0.015625 -1.03125 -0.53125 -1.59375q-0.515625 -0.5625 -1.40625 -0.5625zm0.390625 8.59375q-2.453125 0 -3.84375 -1.359375q-1.375 -1.359375 -1.375 -3.84375q0 -2.5625 1.265625 -3.953125q1.28125 -1.4062347 3.546875 -1.4062347q2.15625 0 3.359375 1.2343597q1.203125 1.21875 1.203125 3.390625l0 1.34375l-6.5625 0q0.046875 1.1875 0.703125 1.859375q0.65625 0.65625 1.828125 0.65625q0.921875 0 1.734375 -0.1875q0.828125 -0.1875 1.71875 -0.609375l0 2.15625q-0.71875 0.359375 -1.546875 0.53125q-0.828125 0.1875 -2.03125 0.1875zm14.493713 0q-1.796875 0 -2.828125 -1.390625q-1.015625 -1.40625 -1.015625 -3.875q0 -2.5 1.03125 -3.890625q1.046875 -1.4062347 2.875 -1.4062347q1.921875 0 2.9375 1.4999847l0.09375 0q-0.21875 -1.1406097 -0.21875 -2.0312347l0 -3.265625l2.796875 0l0 14.17186l-2.140625 0l-0.53125 -1.328125l-0.125 0q-0.9375 1.515625 -2.875 1.515625zm0.96875 -2.21875q1.0625 0 1.5625 -0.609375q0.5 -0.625 0.546875 -2.109375l0 -0.3125q0 -1.640625 -0.515625 -2.34375q-0.5 -0.703125 -1.640625 -0.703125q-0.921875 0 -1.4375 0.78125q-0.515625 0.78125 -0.515625 2.296875q0 1.5 0.515625 2.25q0.515625 0.75 1.484375 0.75zm7.493408 -10.781235q0 -1.359375 1.5 -1.359375q1.515625 0 1.515625 1.359375q0 0.640625 -0.375 1.0q-0.375 0.359375 -1.140625 0.359375q-1.5 0 -1.5 -1.359375zm2.890625 12.812485l-2.78125 0l0 -10.187485l2.78125 0l0 10.187485zm10.021606 -3.03125q0 1.578125 -1.09375 2.40625q-1.078125 0.8125 -3.25 0.8125q-1.109375 0 -1.890625 -0.15625q-0.78125 -0.15625 -1.46875 -0.4375l0 -2.296875q0.765625 0.359375 1.734375 0.609375q0.984375 0.25 1.71875 0.25q1.515625 0 1.515625 -0.875q0 -0.328125 -0.203125 -0.53125q-0.203125 -0.21875 -0.703125 -0.46875q-0.484375 -0.265625 -1.3125 -0.609375q-1.171875 -0.484375 -1.71875 -0.90625q-0.546875 -0.421875 -0.796875 -0.953125q-0.25 -0.546875 -0.25 -1.34375q0 -1.359375 1.046875 -2.0937347q1.046875 -0.75 2.984375 -0.75q1.84375 0 3.578125 0.796875l-0.84375 2.0156097q-0.765625 -0.328125 -1.4375 -0.53125q-0.65625 -0.21875 -1.34375 -0.21875q-1.234375 0 -1.234375 0.65625q0 0.375 0.390625 0.65625q0.40625 0.265625 1.75 0.8125q1.1875 0.46875 1.734375 0.890625q0.5625 0.421875 0.828125 0.96875q0.265625 0.546875 0.265625 1.296875zm6.4609375 1.0q0.734375 0 1.75 -0.3125l0 2.0625q-1.046875 0.46875 -2.546875 0.46875q-1.671875 0 -2.4375 -0.84375q-0.75 -0.84375 -0.75 -2.53125l0 -4.90625l-1.34375 0l0 -1.1875l1.53125 -0.92185974l0.8125 -2.15625l1.765625 0l0 2.171875l2.859375 0l0 2.0937347l-2.859375 0l0 4.90625q0 0.59375 0.328125 0.875q0.34375 0.28125 0.890625 0.28125zm9.488953 -8.343735q0.5625 0 0.9375 0.078125l-0.203125 2.6093597q-0.34375 -0.09375 -0.828125 -0.09375q-1.328125 0 -2.078125 0.6875q-0.734375 0.6875 -0.734375 1.90625l0 5.1875l-2.78125 0l0 -10.187485l2.109375 0l0.40625 1.7187347l0.140625 0q0.46875 -0.859375 1.265625 -1.3749847q0.8125 -0.53125 1.765625 -0.53125zm2.6749878 -2.4375q0 -1.359375 1.5 -1.359375q1.515625 0 1.515625 1.359375q0 0.640625 -0.375 1.0q-0.375 0.359375 -1.140625 0.359375q-1.5 0 -1.5 -1.359375zm2.890625 12.812485l-2.78125 0l0 -10.187485l2.78125 0l0 10.187485zm8.584045 -10.374985q1.796875 0 2.8125 1.4062347q1.03125 1.40625 1.03125 3.859375q0 2.515625 -1.0625 3.90625q-1.046875 1.390625 -2.859375 1.390625q-1.796875 0 -2.8125 -1.3125l-0.1875 0l-0.46875 1.125l-2.125 0l0 -14.17186l2.78125 0l0 3.296875q0 0.625 -0.109375 2.0156097l0.109375 0q0.96875 -1.5156097 2.890625 -1.5156097zm-0.890625 2.2187347q-1.03125 0 -1.515625 0.640625q-0.46875 0.625 -0.484375 2.09375l0 0.296875q0 1.640625 0.484375 2.359375q0.484375 0.703125 1.546875 0.703125q0.859375 0 1.359375 -0.78125q0.515625 -0.796875 0.515625 -2.296875q0 -1.515625 -0.515625 -2.265625q-0.515625 -0.75 -1.390625 -0.75zm14.243408 8.15625l-0.375 -1.296875l-0.140625 0q-0.453125 0.703125 -1.28125 1.09375q-0.8125 0.390625 -1.859375 0.390625q-1.796875 0 -2.703125 -0.953125q-0.90625 -0.96875 -0.90625 -2.78125l0 -6.6406097l2.78125 0l0 5.9531097q0 1.09375 0.390625 1.65625q0.390625 0.546875 1.25 0.546875q1.15625 0 1.671875 -0.78125q0.53125 -0.78125 0.53125 -2.578125l0 -4.7968597l2.765625 0l0 10.187485l-2.125 0zm9.339539 -2.03125q0.734375 0 1.75 -0.3125l0 2.0625q-1.046875 0.46875 -2.546875 0.46875q-1.671875 0 -2.4375 -0.84375q-0.75 -0.84375 -0.75 -2.53125l0 -4.90625l-1.34375 0l0 -1.1875l1.53125 -0.92185974l0.8125 -2.15625l1.765625 0l0 2.171875l2.859375 0l0 2.0937347l-2.859375 0l0 4.90625q0 0.59375 0.328125 0.875q0.34375 0.28125 0.890625 0.28125zm3.6920776 -10.781235q0 -1.359375 1.5 -1.359375q1.515625 0 1.515625 1.359375q0 0.640625 -0.375 1.0q-0.375 0.359375 -1.140625 0.359375q-1.5 0 -1.5 -1.359375zm2.890625 12.812485l-2.78125 0l0 -10.187485l2.78125 0l0 10.187485zm5.1309204 -5.109375q0 1.515625 0.5 2.296875q0.5 0.765625 1.609375 0.765625q1.109375 0 1.59375 -0.765625q0.5 -0.78125 0.5 -2.296875q0 -1.515625 -0.5 -2.265625q-0.484375 -0.765625 -1.609375 -0.765625q-1.109375 0 -1.609375 0.765625q-0.484375 0.75 -0.484375 2.265625zm7.046875 0q0 2.484375 -1.3125 3.890625q-1.3125 1.40625 -3.65625 1.40625q-1.46875 0 -2.59375 -0.640625q-1.109375 -0.65625 -1.71875 -1.84375q-0.59375 -1.203125 -0.59375 -2.8125q0 -2.5 1.296875 -3.875q1.296875 -1.3906097 3.65625 -1.3906097q1.46875 0 2.59375 0.640625q1.125 0.64060974 1.71875 1.8281097q0.609375 1.1875 0.609375 2.796875zm11.691467 5.109375l-2.78125 0l0 -5.953125q0 -1.09375 -0.390625 -1.640625q-0.390625 -0.5625 -1.25 -0.5625q-1.15625 0 -1.6875 0.78125q-0.515625 0.78125 -0.515625 2.578125l0 4.796875l-2.78125 0l0 -10.187485l2.125 0l0.375 1.3124847l0.15625 0q0.46875 -0.74998474 1.28125 -1.1249847q0.8125 -0.375 1.84375 -0.375q1.78125 0 2.703125 0.96873474q0.921875 0.953125 0.921875 2.765625l0 6.640625z" fill-rule="nonzero"/><path fill="#000000" fill-opacity="0.0" d="m581.17084 112.12336c0 31.59182 0.01574707 47.38836 0.03149414 63.18363c0.01574707 15.795273 0.03149414 31.58928 0.03149414 63.178574" fill-rule="evenodd"/><path stroke="#666666" stroke-width="2.0" stroke-linejoin="round" stroke-linecap="butt" d="m581.17084 112.12336c0 31.59182 0.01574707 47.388344 0.03149414 63.18363c0.007873535 7.897629 0.01574707 15.794968 0.021606445 25.666534c0.0029907227 4.9357758 0.005432129 10.365143 0.0071411133 16.534866l0.001159668 8.977173" fill-rule="evenodd"/><path fill="#666666" stroke="#666666" stroke-width="2.0" stroke-linecap="butt" d="m577.9288 226.486l3.3046265 9.07576l3.3023071 -9.076614z" fill-rule="evenodd"/><path fill="#000000" fill-opacity="0.0" d="m174.82677 281.19946c0 50.740173 23.149612 101.480316 46.299225 101.480316" fill-rule="evenodd"/><path stroke="#666666" stroke-width="2.0" stroke-linejoin="round" stroke-linecap="butt" d="m174.82677 281.19946c0 25.370087 5.7873993 50.740173 14.468506 69.76773c4.340561 9.513763 9.404526 17.441925 14.830215 22.991638c1.35643 1.3874207 2.735443 2.6261902 4.131439 3.703949c0.34899902 0.2694397 0.6990509 0.5287781 1.0500793 0.77786255l0.47390747 0.32894897" fill-rule="evenodd"/><path fill="#666666" stroke="#666666" stroke-width="2.0" stroke-linecap="butt" d="m208.7045 381.89276l9.657257 -0.16567993l-7.5043945 -6.080658z" fill-rule="evenodd"/><path fill="#000000" fill-opacity="0.0" d="m221.12335 348.82678l297.7638 0l0 67.68503l-297.7638 0z" fill-rule="evenodd"/><path fill="#000000" d="m245.85753 375.74677l-2.8125 0l0 -7.703125l0.03125 -1.265625l0.046875 -1.390625q-0.703125 0.703125 -0.984375 0.921875l-1.53125 1.234375l-1.34375 -1.703125l4.28125 -3.40625l2.3125 0l0 13.3125zm4.008377 -1.296875q0 -0.765625 0.40625 -1.15625q0.421875 -0.390625 1.203125 -0.390625q0.75 0 1.15625 0.40625q0.421875 0.390625 0.421875 1.140625q0 0.71875 -0.421875 1.140625q-0.40625 0.40625 -1.15625 0.40625q-0.765625 0 -1.1875 -0.40625q-0.421875 -0.40625 -0.421875 -1.140625z" fill-rule="nonzero"/><path fill="#000000" d="m287.4671 375.74677l-7.671875 0l0 -13.3125l7.671875 0l0 2.3125l-4.84375 0l0 2.921875l4.515625 0l0 2.3125l-4.515625 0l0 3.4375l4.84375 0l0 2.328125zm4.6517334 -5.203125l-3.28125 -4.984375l3.15625 0l1.96875 3.25l2.0 -3.25l3.15625 0l-3.328125 4.984375l3.46875 5.203125l-3.15625 0l-2.140625 -3.484375l-2.140625 3.484375l-3.15625 0l3.453125 -5.203125zm14.285645 5.390625q-1.796875 0 -2.8125 -1.3125l-0.140625 0q0.140625 1.28125 0.140625 1.484375l0 4.125l-2.78125 0l0 -14.671875l2.265625 0l0.390625 1.328125l0.125 0q0.96875 -1.515625 2.890625 -1.515625q1.796875 0 2.8125 1.390625q1.03125 1.390625 1.03125 3.875q0 1.625 -0.484375 2.828125q-0.46875 1.203125 -1.359375 1.84375q-0.875 0.625 -2.078125 0.625zm-0.8125 -8.34375q-1.03125 0 -1.515625 0.640625q-0.46875 0.625 -0.484375 2.09375l0 0.296875q0 1.640625 0.484375 2.359375q0.484375 0.703125 1.546875 0.703125q1.875 0 1.875 -3.078125q0 -1.515625 -0.46875 -2.265625q-0.453125 -0.75 -1.4375 -0.75zm9.805908 8.15625l-2.78125 0l0 -14.171875l2.78125 0l0 14.171875zm9.38092 0l-0.53125 -1.390625l-0.078125 0q-0.703125 0.890625 -1.453125 1.234375q-0.734375 0.34375 -1.921875 0.34375q-1.46875 0 -2.3125 -0.84375q-0.84375 -0.84375 -0.84375 -2.390625q0 -1.625 1.125 -2.390625q1.140625 -0.765625 3.4375 -0.84375l1.765625 -0.0625l0 -0.4375q0 -1.546875 -1.59375 -1.546875q-1.21875 0 -2.859375 0.734375l-0.921875 -1.875q1.75 -0.921875 3.890625 -0.921875q2.046875 0 3.140625 0.890625q1.09375 0.890625 1.09375 2.71875l0 6.78125l-1.9375 0zm-0.8125 -4.71875l-1.078125 0.03125q-1.21875 0.046875 -1.8125 0.453125q-0.578125 0.390625 -0.578125 1.203125q0 1.1875 1.34375 1.1875q0.96875 0 1.546875 -0.546875q0.578125 -0.5625 0.578125 -1.484375l0 -0.84375zm5.502838 -8.09375q0 -1.359375 1.5 -1.359375q1.515625 0 1.515625 1.359375q0 0.640625 -0.375 1.0q-0.375 0.359375 -1.140625 0.359375q-1.5 0 -1.5 -1.359375zm2.890625 12.8125l-2.78125 0l0 -10.1875l2.78125 0l0 10.1875zm12.31842 0l-2.78125 0l0 -5.953125q0 -1.09375 -0.390625 -1.640625q-0.390625 -0.5625 -1.25 -0.5625q-1.15625 0 -1.6875 0.78125q-0.515625 0.78125 -0.515625 2.578125l0 4.796875l-2.78125 0l0 -10.1875l2.125 0l0.375 1.3125l0.15625 0q0.46875 -0.75 1.28125 -1.125q0.8125 -0.375 1.84375 -0.375q1.78125 0 2.703125 0.96875q0.921875 0.953125 0.921875 2.765625l0 6.640625zm13.3420105 -8.09375l-2.40625 0l0 8.09375l-2.78125 0l0 -8.09375l-1.53125 0l0 -1.34375l1.53125 -0.75l0 -0.75q0 -1.734375 0.84375 -2.53125q0.859375 -0.8125 2.75 -0.8125q1.4375 0 2.5625 0.4375l-0.71875 2.03125q-0.828125 -0.25 -1.546875 -0.25q-0.59375 0 -0.859375 0.34375q-0.25 0.34375 -0.25 0.890625l0 0.640625l2.40625 0l0 2.09375zm5.8019714 -0.3125q-0.875 0 -1.375 0.5625q-0.5 0.5625 -0.578125 1.59375l3.890625 0q-0.015625 -1.03125 -0.53125 -1.59375q-0.515625 -0.5625 -1.40625 -0.5625zm0.390625 8.59375q-2.453125 0 -3.84375 -1.359375q-1.375 -1.359375 -1.375 -3.84375q0 -2.5625 1.265625 -3.953125q1.28125 -1.40625 3.546875 -1.40625q2.15625 0 3.359375 1.234375q1.203125 1.21875 1.203125 3.390625l0 1.34375l-6.5625 0q0.046875 1.1875 0.703125 1.859375q0.65625 0.65625 1.828125 0.65625q0.921875 0 1.734375 -0.1875q0.828125 -0.1875 1.71875 -0.609375l0 2.15625q-0.71875 0.359375 -1.546875 0.53125q-0.828125 0.1875 -2.03125 0.1875zm12.881866 -0.1875l-0.53125 -1.390625l-0.078125 0q-0.703125 0.890625 -1.453125 1.234375q-0.734375 0.34375 -1.921875 0.34375q-1.46875 0 -2.3125 -0.84375q-0.84375 -0.84375 -0.84375 -2.390625q0 -1.625 1.125 -2.390625q1.140625 -0.765625 3.4375 -0.84375l1.765625 -0.0625l0 -0.4375q0 -1.546875 -1.59375 -1.546875q-1.21875 0 -2.859375 0.734375l-0.921875 -1.875q1.75 -0.921875 3.890625 -0.921875q2.046875 0 3.140625 0.890625q1.09375 0.890625 1.09375 2.71875l0 6.78125l-1.9375 0zm-0.8125 -4.71875l-1.078125 0.03125q-1.21875 0.046875 -1.8125 0.453125q-0.578125 0.390625 -0.578125 1.203125q0 1.1875 1.34375 1.1875q0.96875 0 1.546875 -0.546875q0.578125 -0.5625 0.578125 -1.484375l0 -0.84375zm9.909058 2.6875q0.734375 0 1.75 -0.3125l0 2.0625q-1.046875 0.46875 -2.546875 0.46875q-1.671875 0 -2.4375 -0.84375q-0.75 -0.84375 -0.75 -2.53125l0 -4.90625l-1.34375 0l0 -1.1875l1.53125 -0.921875l0.8125 -2.15625l1.765625 0l0 2.171875l2.859375 0l0 2.09375l-2.859375 0l0 4.90625q0 0.59375 0.328125 0.875q0.34375 0.28125 0.890625 0.28125zm11.020233 2.03125l-0.375 -1.296875l-0.140625 0q-0.453125 0.703125 -1.28125 1.09375q-0.8125 0.390625 -1.859375 0.390625q-1.796875 0 -2.703125 -0.953125q-0.90625 -0.96875 -0.90625 -2.78125l0 -6.640625l2.78125 0l0 5.953125q0 1.09375 0.390625 1.65625q0.390625 0.546875 1.25 0.546875q1.15625 0 1.671875 -0.78125q0.53125 -0.78125 0.53125 -2.578125l0 -4.796875l2.765625 0l0 10.1875l-2.125 0zm10.730133 -10.375q0.5625 0 0.9375 0.078125l-0.203125 2.609375q-0.34375 -0.09375 -0.828125 -0.09375q-1.328125 0 -2.078125 0.6875q-0.734375 0.6875 -0.734375 1.90625l0 5.1875l-2.78125 0l0 -10.1875l2.109375 0l0.40625 1.71875l0.140625 0q0.46875 -0.859375 1.265625 -1.375q0.8125 -0.53125 1.765625 -0.53125zm7.0030823 1.96875q-0.875 0 -1.375 0.5625q-0.5 0.5625 -0.578125 1.59375l3.890625 0q-0.015625 -1.03125 -0.53125 -1.59375q-0.515625 -0.5625 -1.40625 -0.5625zm0.390625 8.59375q-2.453125 0 -3.84375 -1.359375q-1.375 -1.359375 -1.375 -3.84375q0 -2.5625 1.265625 -3.953125q1.28125 -1.40625 3.546875 -1.40625q2.15625 0 3.359375 1.234375q1.203125 1.21875 1.203125 3.390625l0 1.34375l-6.5625 0q0.046875 1.1875 0.703125 1.859375q0.65625 0.65625 1.828125 0.65625q0.921875 0 1.734375 -0.1875q0.828125 -0.1875 1.71875 -0.609375l0 2.15625q-0.71875 0.359375 -1.546875 0.53125q-0.828125 0.1875 -2.03125 0.1875zm16.931244 -10.5625q1.796875 0 2.8125 1.40625q1.03125 1.40625 1.03125 3.859375q0 2.515625 -1.0625 3.90625q-1.046875 1.390625 -2.859375 1.390625q-1.796875 0 -2.8125 -1.3125l-0.1875 0l-0.46875 1.125l-2.125 0l0 -14.171875l2.78125 0l0 3.296875q0 0.625 -0.109375 2.015625l0.109375 0q0.96875 -1.515625 2.890625 -1.515625zm-0.890625 2.21875q-1.03125 0 -1.515625 0.640625q-0.46875 0.625 -0.484375 2.09375l0 0.296875q0 1.640625 0.484375 2.359375q0.484375 0.703125 1.546875 0.703125q0.859375 0 1.359375 -0.78125q0.515625 -0.796875 0.515625 -2.296875q0 -1.515625 -0.515625 -2.265625q-0.515625 -0.75 -1.390625 -0.75zm6.915283 -4.65625q0 -1.359375 1.5 -1.359375q1.515625 0 1.515625 1.359375q0 0.640625 -0.375 1.0q-0.375 0.359375 -1.140625 0.359375q-1.5 0 -1.5 -1.359375zm2.890625 12.8125l-2.78125 0l0 -10.1875l2.78125 0l0 10.1875zm9.38092 0l-0.53125 -1.390625l-0.078125 0q-0.703125 0.890625 -1.453125 1.234375q-0.734375 0.34375 -1.921875 0.34375q-1.46875 0 -2.3125 -0.84375q-0.84375 -0.84375 -0.84375 -2.390625q0 -1.625 1.125 -2.390625q1.140625 -0.765625 3.4375 -0.84375l1.765625 -0.0625l0 -0.4375q0 -1.546875 -1.59375 -1.546875q-1.21875 0 -2.859375 0.734375l-0.921875 -1.875q1.75 -0.921875 3.890625 -0.921875q2.046875 0 3.140625 0.890625q1.09375 0.890625 1.09375 2.71875l0 6.78125l-1.9375 0zm-0.8125 -4.71875l-1.078125 0.03125q-1.21875 0.046875 -1.8125 0.453125q-0.578125 0.390625 -0.578125 1.203125q0 1.1875 1.34375 1.1875q0.96875 0 1.546875 -0.546875q0.578125 -0.5625 0.578125 -1.484375l0 -0.84375zm12.721588 1.6875q0 1.578125 -1.09375 2.40625q-1.078125 0.8125 -3.25 0.8125q-1.109375 0 -1.890625 -0.15625q-0.78125 -0.15625 -1.46875 -0.4375l0 -2.296875q0.765625 0.359375 1.734375 0.609375q0.984375 0.25 1.71875 0.25q1.515625 0 1.515625 -0.875q0 -0.328125 -0.203125 -0.53125q-0.203125 -0.21875 -0.703125 -0.46875q-0.484375 -0.265625 -1.3125 -0.609375q-1.171875 -0.484375 -1.71875 -0.90625q-0.546875 -0.421875 -0.796875 -0.953125q-0.25 -0.546875 -0.25 -1.34375q0 -1.359375 1.046875 -2.09375q1.046875 -0.75 2.984375 -0.75q1.84375 0 3.578125 0.796875l-0.84375 2.015625q-0.765625 -0.328125 -1.4375 -0.53125q-0.65625 -0.21875 -1.34375 -0.21875q-1.234375 0 -1.234375 0.65625q0 0.375 0.390625 0.65625q0.40625 0.265625 1.75 0.8125q1.1875 0.46875 1.734375 0.890625q0.5625 0.421875 0.828125 0.96875q0.265625 0.546875 0.265625 1.296875z" fill-rule="nonzero"/><path fill="#000000" d="m248.2169 397.74677l-9.3125 0l0 -1.953125l3.34375 -3.390625q1.484375 -1.515625 1.9375 -2.09375q0.453125 -0.59375 0.65625 -1.09375q0.203125 -0.5 0.203125 -1.046875q0 -0.796875 -0.453125 -1.1875q-0.4375 -0.390625 -1.171875 -0.390625q-0.78125 0 -1.515625 0.359375q-0.71875 0.34375 -1.515625 1.0l-1.53125 -1.8125q0.984375 -0.828125 1.625 -1.171875q0.65625 -0.359375 1.421875 -0.546875q0.765625 -0.1875 1.71875 -0.1875q1.25 0 2.203125 0.46875q0.953125 0.453125 1.484375 1.28125q0.53125 0.8125 0.53125 1.859375q0 0.921875 -0.328125 1.734375q-0.328125 0.796875 -1.015625 1.65625q-0.671875 0.84375 -2.375 2.40625l-1.71875 1.609375l0 0.125l5.8125 0l0 2.375zm1.6490021 -1.296875q0 -0.765625 0.40625 -1.15625q0.421875 -0.390625 1.203125 -0.390625q0.75 0 1.15625 0.40625q0.421875 0.390625 0.421875 1.140625q0 0.71875 -0.421875 1.140625q-0.40625 0.40625 -1.15625 0.40625q-0.765625 0 -1.1875 -0.40625q-0.421875 -0.40625 -0.421875 -1.140625z" fill-rule="nonzero"/><path fill="#000000" d="m287.4671 397.74677l-7.671875 0l0 -13.3125l7.671875 0l0 2.3125l-4.84375 0l0 2.921875l4.515625 0l0 2.3125l-4.515625 0l0 3.4375l4.84375 0l0 2.328125zm4.6517334 -5.203125l-3.28125 -4.984375l3.15625 0l1.96875 3.25l2.0 -3.25l3.15625 0l-3.328125 4.984375l3.46875 5.203125l-3.15625 0l-2.140625 -3.484375l-2.140625 3.484375l-3.15625 0l3.453125 -5.203125zm14.285645 5.390625q-1.796875 0 -2.8125 -1.3125l-0.140625 0q0.140625 1.28125 0.140625 1.484375l0 4.125l-2.78125 0l0 -14.671875l2.265625 0l0.390625 1.328125l0.125 0q0.96875 -1.515625 2.890625 -1.515625q1.796875 0 2.8125 1.390625q1.03125 1.390625 1.03125 3.875q0 1.625 -0.484375 2.828125q-0.46875 1.203125 -1.359375 1.84375q-0.875 0.625 -2.078125 0.625zm-0.8125 -8.34375q-1.03125 0 -1.515625 0.640625q-0.46875 0.625 -0.484375 2.09375l0 0.296875q0 1.640625 0.484375 2.359375q0.484375 0.703125 1.546875 0.703125q1.875 0 1.875 -3.078125q0 -1.515625 -0.46875 -2.265625q-0.453125 -0.75 -1.4375 -0.75zm9.805908 8.15625l-2.78125 0l0 -14.171875l2.78125 0l0 14.171875zm9.38092 0l-0.53125 -1.390625l-0.078125 0q-0.703125 0.890625 -1.453125 1.234375q-0.734375 0.34375 -1.921875 0.34375q-1.46875 0 -2.3125 -0.84375q-0.84375 -0.84375 -0.84375 -2.390625q0 -1.625 1.125 -2.390625q1.140625 -0.765625 3.4375 -0.84375l1.765625 -0.0625l0 -0.4375q0 -1.546875 -1.59375 -1.546875q-1.21875 0 -2.859375 0.734375l-0.921875 -1.875q1.75 -0.921875 3.890625 -0.921875q2.046875 0 3.140625 0.890625q1.09375 0.890625 1.09375 2.71875l0 6.78125l-1.9375 0zm-0.8125 -4.71875l-1.078125 0.03125q-1.21875 0.046875 -1.8125 0.453125q-0.578125 0.390625 -0.578125 1.203125q0 1.1875 1.34375 1.1875q0.96875 0 1.546875 -0.546875q0.578125 -0.5625 0.578125 -1.484375l0 -0.84375zm5.502838 -8.09375q0 -1.359375 1.5 -1.359375q1.515625 0 1.515625 1.359375q0 0.640625 -0.375 1.0q-0.375 0.359375 -1.140625 0.359375q-1.5 0 -1.5 -1.359375zm2.890625 12.8125l-2.78125 0l0 -10.1875l2.78125 0l0 10.1875zm12.31842 0l-2.78125 0l0 -5.953125q0 -1.09375 -0.390625 -1.640625q-0.390625 -0.5625 -1.25 -0.5625q-1.15625 0 -1.6875 0.78125q-0.515625 0.78125 -0.515625 2.578125l0 4.796875l-2.78125 0l0 -10.1875l2.125 0l0.375 1.3125l0.15625 0q0.46875 -0.75 1.28125 -1.125q0.8125 -0.375 1.84375 -0.375q1.78125 0 2.703125 0.96875q0.921875 0.953125 0.921875 2.765625l0 6.640625zm16.826385 0l-2.78125 0l0 -5.953125q0 -1.09375 -0.375 -1.640625q-0.359375 -0.5625 -1.15625 -0.5625q-1.0625 0 -1.546875 0.78125q-0.484375 0.78125 -0.484375 2.578125l0 4.796875l-2.78125 0l0 -10.1875l2.125 0l0.375 1.3125l0.15625 0q0.40625 -0.703125 1.171875 -1.09375q0.78125 -0.40625 1.78125 -0.40625q2.296875 0 3.109375 1.5l0.234375 0q0.421875 -0.71875 1.21875 -1.109375q0.796875 -0.390625 1.796875 -0.390625q1.734375 0 2.609375 0.890625q0.890625 0.890625 0.890625 2.84375l0 6.640625l-2.78125 0l0 -5.953125q0 -1.09375 -0.375 -1.640625q-0.359375 -0.5625 -1.15625 -0.5625q-1.015625 0 -1.53125 0.734375q-0.5 0.71875 -0.5 2.3125l0 5.109375zm11.412964 -5.109375q0 1.515625 0.5 2.296875q0.5 0.765625 1.609375 0.765625q1.109375 0 1.59375 -0.765625q0.5 -0.78125 0.5 -2.296875q0 -1.515625 -0.5 -2.265625q-0.484375 -0.765625 -1.609375 -0.765625q-1.109375 0 -1.609375 0.765625q-0.484375 0.75 -0.484375 2.265625zm7.046875 0q0 2.484375 -1.3125 3.890625q-1.3125 1.40625 -3.65625 1.40625q-1.46875 0 -2.59375 -0.640625q-1.109375 -0.65625 -1.71875 -1.84375q-0.59375 -1.203125 -0.59375 -2.8125q0 -2.5 1.296875 -3.875q1.296875 -1.390625 3.65625 -1.390625q1.46875 0 2.59375 0.640625q1.125 0.640625 1.71875 1.828125q0.609375 1.1875 0.609375 2.796875zm5.5195923 5.296875q-1.796875 0 -2.828125 -1.390625q-1.015625 -1.40625 -1.015625 -3.875q0 -2.5 1.03125 -3.890625q1.046875 -1.40625 2.875 -1.40625q1.921875 0 2.9375 1.5l0.09375 0q-0.21875 -1.140625 -0.21875 -2.03125l0 -3.265625l2.796875 0l0 14.171875l-2.140625 0l-0.53125 -1.328125l-0.125 0q-0.9375 1.515625 -2.875 1.515625zm0.96875 -2.21875q1.0625 0 1.5625 -0.609375q0.5 -0.625 0.546875 -2.109375l0 -0.3125q0 -1.640625 -0.515625 -2.34375q-0.5 -0.703125 -1.640625 -0.703125q-0.921875 0 -1.4375 0.78125q-0.515625 0.78125 -0.515625 2.296875q0 1.5 0.515625 2.25q0.515625 0.75 1.484375 0.75zm11.821533 -6.375q-0.875 0 -1.375 0.5625q-0.5 0.5625 -0.578125 1.59375l3.890625 0q-0.015625 -1.03125 -0.53125 -1.59375q-0.515625 -0.5625 -1.40625 -0.5625zm0.390625 8.59375q-2.453125 0 -3.84375 -1.359375q-1.375 -1.359375 -1.375 -3.84375q0 -2.5625 1.265625 -3.953125q1.28125 -1.40625 3.546875 -1.40625q2.15625 0 3.359375 1.234375q1.203125 1.21875 1.203125 3.390625l0 1.34375l-6.5625 0q0.046875 1.1875 0.703125 1.859375q0.65625 0.65625 1.828125 0.65625q0.921875 0 1.734375 -0.1875q0.828125 -0.1875 1.71875 -0.609375l0 2.15625q-0.71875 0.359375 -1.546875 0.53125q-0.828125 0.1875 -2.03125 0.1875zm9.194366 -0.1875l-2.78125 0l0 -14.171875l2.78125 0l0 14.171875zm13.445923 -10.375q0.5625 0 0.9375 0.078125l-0.203125 2.609375q-0.34375 -0.09375 -0.828125 -0.09375q-1.328125 0 -2.078125 0.6875q-0.734375 0.6875 -0.734375 1.90625l0 5.1875l-2.78125 0l0 -10.1875l2.109375 0l0.40625 1.71875l0.140625 0q0.46875 -0.859375 1.265625 -1.375q0.8125 -0.53125 1.765625 -0.53125zm7.0030823 1.96875q-0.875 0 -1.375 0.5625q-0.5 0.5625 -0.578125 1.59375l3.890625 0q-0.015625 -1.03125 -0.53125 -1.59375q-0.515625 -0.5625 -1.40625 -0.5625zm0.390625 8.59375q-2.453125 0 -3.84375 -1.359375q-1.375 -1.359375 -1.375 -3.84375q0 -2.5625 1.265625 -3.953125q1.28125 -1.40625 3.546875 -1.40625q2.15625 0 3.359375 1.234375q1.203125 1.21875 1.203125 3.390625l0 1.34375l-6.5625 0q0.046875 1.1875 0.703125 1.859375q0.65625 0.65625 1.828125 0.65625q0.921875 0 1.734375 -0.1875q0.828125 -0.1875 1.71875 -0.609375l0 2.15625q-0.71875 0.359375 -1.546875 0.53125q-0.828125 0.1875 -2.03125 0.1875zm9.194366 -0.1875l-2.78125 0l0 -14.171875l2.78125 0l0 14.171875zm2.802826 -12.8125q0 -1.359375 1.5 -1.359375q1.515625 0 1.515625 1.359375q0 0.640625 -0.375 1.0q-0.375 0.359375 -1.140625 0.359375q-1.5 0 -1.5 -1.359375zm2.890625 12.8125l-2.78125 0l0 -10.1875l2.78125 0l0 10.1875zm9.38092 0l-0.53125 -1.390625l-0.078125 0q-0.703125 0.890625 -1.453125 1.234375q-0.734375 0.34375 -1.921875 0.34375q-1.46875 0 -2.3125 -0.84375q-0.84375 -0.84375 -0.84375 -2.390625q0 -1.625 1.125 -2.390625q1.140625 -0.765625 3.4375 -0.84375l1.765625 -0.0625l0 -0.4375q0 -1.546875 -1.59375 -1.546875q-1.21875 0 -2.859375 0.734375l-0.921875 -1.875q1.75 -0.921875 3.890625 -0.921875q2.046875 0 3.140625 0.890625q1.09375 0.890625 1.09375 2.71875l0 6.78125l-1.9375 0zm-0.8125 -4.71875l-1.078125 0.03125q-1.21875 0.046875 -1.8125 0.453125q-0.578125 0.390625 -0.578125 1.203125q0 1.1875 1.34375 1.1875q0.96875 0 1.546875 -0.546875q0.578125 -0.5625 0.578125 -1.484375l0 -0.84375zm11.284088 -5.65625q1.796875 0 2.8125 1.40625q1.03125 1.40625 1.03125 3.859375q0 2.515625 -1.0625 3.90625q-1.046875 1.390625 -2.859375 1.390625q-1.796875 0 -2.8125 -1.3125l-0.1875 0l-0.46875 1.125l-2.125 0l0 -14.171875l2.78125 0l0 3.296875q0 0.625 -0.109375 2.015625l0.109375 0q0.96875 -1.515625 2.890625 -1.515625zm-0.890625 2.21875q-1.03125 0 -1.515625 0.640625q-0.46875 0.625 -0.484375 2.09375l0 0.296875q0 1.640625 0.484375 2.359375q0.484375 0.703125 1.546875 0.703125q0.859375 0 1.359375 -0.78125q0.515625 -0.796875 0.515625 -2.296875q0 -1.515625 -0.515625 -2.265625q-0.515625 -0.75 -1.390625 -0.75zm6.915283 -4.65625q0 -1.359375 1.5 -1.359375q1.515625 0 1.515625 1.359375q0 0.640625 -0.375 1.0q-0.375 0.359375 -1.140625 0.359375q-1.5 0 -1.5 -1.359375zm2.890625 12.8125l-2.78125 0l0 -10.1875l2.78125 0l0 10.1875zm5.6934204 0l-2.78125 0l0 -14.171875l2.78125 0l0 14.171875zm2.802826 -12.8125q0 -1.359375 1.5 -1.359375q1.515625 0 1.515625 1.359375q0 0.640625 -0.375 1.0q-0.375 0.359375 -1.140625 0.359375q-1.5 0 -1.5 -1.359375zm2.890625 12.8125l-2.78125 0l0 -10.1875l2.78125 0l0 10.1875zm7.2090454 -2.03125q0.734375 0 1.75 -0.3125l0 2.0625q-1.046875 0.46875 -2.546875 0.46875q-1.671875 0 -2.4375 -0.84375q-0.75 -0.84375 -0.75 -2.53125l0 -4.90625l-1.34375 0l0 -1.1875l1.53125 -0.921875l0.8125 -2.15625l1.765625 0l0 2.171875l2.859375 0l0 2.09375l-2.859375 0l0 4.90625q0 0.59375 0.328125 0.875q0.34375 0.28125 0.890625 0.28125zm2.3483276 -8.15625l3.046875 0l1.921875 5.734375q0.234375 0.75 0.328125 1.765625l0.0625 0q0.09375 -0.9375 0.390625 -1.765625l1.890625 -5.734375l2.96875 0l-4.3125 11.484375q-0.578125 1.59375 -1.6875 2.390625q-1.09375 0.796875 -2.5625 0.796875q-0.71875 0 -1.40625 -0.15625l0 -2.203125q0.5 0.109375 1.09375 0.109375q0.734375 0 1.28125 -0.453125q0.5625 -0.4375 0.859375 -1.359375l0.171875 -0.5l-4.046875 -10.109375z" fill-rule="nonzero"/><path fill="#000000" fill-opacity="0.0" d="m581.1706 281.19946c0 50.740173 -31.13385 101.480316 -62.2677 101.480316" fill-rule="evenodd"/><path stroke="#666666" stroke-width="2.0" stroke-linejoin="round" stroke-linecap="butt" d="m581.1706 281.19946c0 25.370087 -7.7834473 50.740173 -19.45868 69.76773c-5.8375854 9.513763 -12.648071 17.441925 -19.94513 22.991638c-1.8242188 1.3874207 -3.678833 2.6261902 -5.5563354 3.703949c-0.9387207 0.53881836 -1.8831177 1.0374451 -2.8323364 1.4942627c-0.47454834 0.22836304 -0.9503784 0.4463501 -1.427185 0.6536255c-0.23846436 0.10366821 -0.47711182 0.20462036 -0.7161255 0.30291748l-0.5625 0.22491455" fill-rule="evenodd"/><path fill="#666666" stroke="#666666" stroke-width="2.0" stroke-linecap="butt" d="m530.0277 377.0985l-8.257202 5.0108337l9.546265 1.4691162z" fill-rule="evenodd"/><path fill="#000000" fill-opacity="0.0" d="m444.52493 112.12336c0 59.17559 -18.629913 88.76458 -37.259827 118.35119c-18.629944 29.586609 -37.259857 59.170868 -37.259857 118.341736" fill-rule="evenodd"/><path stroke="#666666" stroke-width="2.0" stroke-linejoin="round" stroke-linecap="butt" d="m444.52493 112.12336c0 59.17559 -18.629913 88.76458 -37.259827 118.35119c-9.314972 14.793304 -18.629944 29.58603 -25.61615 48.076782c-3.493103 9.245361 -6.4040527 19.415253 -8.441681 30.971954c-1.0188293 5.7783813 -1.8193054 11.903442 -2.3651123 18.432983c-0.13644409 1.6323853 -0.25698853 3.2900696 -0.36102295 4.973938c-0.05203247 0.84191895 -0.09994507 1.6903992 -0.14367676 2.5455322c-0.021850586 0.42755127 -0.042633057 0.856781 -0.06237793 1.2877197l-0.0024108887 0.055786133" fill-rule="evenodd"/><path fill="#666666" stroke="#666666" stroke-width="2.0" stroke-linecap="butt" d="m366.97003 336.74564l3.1003723 9.1475525l3.5049133 -9.000305z" fill-rule="evenodd"/></g></svg>